<svg width="512" height="512" viewBox="0 0 512 512" fill="none" xmlns="http://www.w3.org/2000/svg">
  <defs>
    <linearGradient id="bg" x1="74" y1="58" x2="436" y2="452" gradientUnits="userSpaceOnUse">
      <stop stop-color="#0D1D3C"/>
      <stop offset="1" stop-color="#08152F"/>
    </linearGradient>
    <linearGradient id="frame" x1="102" y1="84" x2="410" y2="430" gradientUnits="userSpaceOnUse">
      <stop stop-color="#4C8DFF"/>
      <stop offset="1" stop-color="#1A4D97"/>
    </linearGradient>
    <linearGradient id="screen" x1="176" y1="156" x2="336" y2="284" gradientUnits="userSpaceOnUse">
      <stop stop-color="#122955"/>
      <stop offset="1" stop-color="#0C1D3E"/>
    </linearGradient>
    <linearGradient id="glow" x1="166" y1="168" x2="350" y2="352" gradientUnits="userSpaceOnUse">
      <stop stop-color="#45E06F" stop-opacity="0.34"/>
      <stop offset="1" stop-color="#3F7CFF" stop-opacity="0.06"/>
    </linearGradient>
    <filter id="shadow" x="84" y="76" width="344" height="344" filterUnits="userSpaceOnUse" color-interpolation-filters="sRGB">
      <feFlood flood-opacity="0" result="BackgroundImageFix"/>
      <feColorMatrix in="SourceAlpha" type="matrix" values="0 0 0 0 0 0 0 0 0 0 0 0 0 0 0 0 0 0 127 0" result="hardAlpha"/>
      <feOffset dy="18"/>
      <feGaussianBlur stdDeviation="18"/>
      <feColorMatrix type="matrix" values="0 0 0 0 0.02 0 0 0 0 0.08 0 0 0 0 0.17 0 0 0 0.42 0"/>
      <feBlend mode="normal" in2="BackgroundImageFix" result="effect1_dropShadow_1_1"/>
      <feBlend mode="normal" in="SourceGraphic" in2="effect1_dropShadow_1_1" result="shape"/>
    </filter>
  </defs>

  <rect x="52" y="52" width="408" height="408" rx="112" fill="url(#bg)"/>
  <rect x="52" y="52" width="408" height="408" rx="112" stroke="url(#frame)" stroke-width="12"/>
  <rect x="84" y="84" width="344" height="344" rx="92" fill="url(#glow)"/>

  <g filter="url(#shadow)">
    <rect x="156" y="132" width="200" height="136" rx="22" fill="url(#screen)" stroke="#E8F2FF" stroke-width="10"/>
    <path d="M142 302H370L404 354C410.629 364.123 403.364 378 391.264 378H120.736C108.636 378 101.371 364.123 108 354L142 302Z" fill="#0F2247" stroke="#E8F2FF" stroke-width="10" stroke-linejoin="round"/>
    <path d="M210 336H302" stroke="#79B7FF" stroke-width="10" stroke-linecap="round"/>
    <path d="M232 356H280" stroke="#45E06F" stroke-width="10" stroke-linecap="round"/>

    <rect x="186" y="164" width="140" height="72" rx="14" fill="#09152C"/>
    <path d="M208 216L232 192L252 208L286 178L304 196" stroke="#45E06F" stroke-width="10" stroke-linecap="round" stroke-linejoin="round"/>
    <circle cx="304" cy="196" r="10" fill="#45E06F"/>

    <rect x="314" y="146" width="28" height="28" rx="10" fill="#45E06F"/>
    <path d="M322 160L327 165L336 154" stroke="#08152F" stroke-width="5" stroke-linecap="round" stroke-linejoin="round"/>
  </g>
</svg>
